<svg xmlns="http://www.w3.org/2000/svg" viewBox="0 0 1024 1024" shape-rendering="crispEdges">


<rect x="152" y="172" width="40" height="40" fill="#111111" opacity="1" />
<rect x="192" y="172" width="40" height="40" fill="#111111" opacity="1" />
<rect x="232" y="172" width="40" height="40" fill="#111111" opacity="1" />
<rect x="272" y="172" width="40" height="40" fill="#111111" opacity="1" />
<rect x="312" y="172" width="40" height="40" fill="#111111" opacity="1" />
<rect x="352" y="172" width="40" height="40" fill="#111111" opacity="1" />
<rect x="392" y="172" width="40" height="40" fill="#111111" opacity="1" />
<rect x="432" y="172" width="40" height="40" fill="#111111" opacity="1" />
<rect x="472" y="172" width="40" height="40" fill="#111111" opacity="1" />
<rect x="512" y="172" width="40" height="40" fill="#111111" opacity="1" />
<rect x="552" y="172" width="40" height="40" fill="#111111" opacity="1" />
<rect x="592" y="172" width="40" height="40" fill="#111111" opacity="1" />
<rect x="632" y="172" width="40" height="40" fill="#111111" opacity="1" />
<rect x="672" y="172" width="40" height="40" fill="#111111" opacity="1" />
<rect x="712" y="172" width="40" height="40" fill="#111111" opacity="1" />
<rect x="752" y="172" width="40" height="40" fill="#111111" opacity="1" />
<rect x="792" y="172" width="40" height="40" fill="#111111" opacity="1" />
<rect x="832" y="172" width="40" height="40" fill="#111111" opacity="1" />
<rect x="152" y="212" width="40" height="40" fill="#111111" opacity="1" />
<rect x="192" y="212" width="40" height="40" fill="#111111" opacity="1" />
<rect x="232" y="212" width="40" height="40" fill="#111111" opacity="1" />
<rect x="272" y="212" width="40" height="40" fill="#111111" opacity="1" />
<rect x="312" y="212" width="40" height="40" fill="#111111" opacity="1" />
<rect x="352" y="212" width="40" height="40" fill="#111111" opacity="1" />
<rect x="392" y="212" width="40" height="40" fill="#111111" opacity="1" />
<rect x="432" y="212" width="40" height="40" fill="#111111" opacity="1" />
<rect x="472" y="212" width="40" height="40" fill="#111111" opacity="1" />
<rect x="512" y="212" width="40" height="40" fill="#111111" opacity="1" />
<rect x="552" y="212" width="40" height="40" fill="#111111" opacity="1" />
<rect x="592" y="212" width="40" height="40" fill="#111111" opacity="1" />
<rect x="632" y="212" width="40" height="40" fill="#111111" opacity="1" />
<rect x="672" y="212" width="40" height="40" fill="#111111" opacity="1" />
<rect x="712" y="212" width="40" height="40" fill="#111111" opacity="1" />
<rect x="752" y="212" width="40" height="40" fill="#111111" opacity="1" />
<rect x="792" y="212" width="40" height="40" fill="#111111" opacity="1" />
<rect x="832" y="212" width="40" height="40" fill="#111111" opacity="1" />
<rect x="152" y="252" width="40" height="40" fill="#111111" opacity="1" />
<rect x="192" y="252" width="40" height="40" fill="#111111" opacity="1" />
<rect x="232" y="252" width="40" height="40" fill="#111111" opacity="1" />
<rect x="272" y="252" width="40" height="40" fill="#111111" opacity="1" />
<rect x="312" y="252" width="40" height="40" fill="#111111" opacity="1" />
<rect x="352" y="252" width="40" height="40" fill="#111111" opacity="1" />
<rect x="392" y="252" width="40" height="40" fill="#111111" opacity="1" />
<rect x="432" y="252" width="40" height="40" fill="#111111" opacity="1" />
<rect x="472" y="252" width="40" height="40" fill="#111111" opacity="1" />
<rect x="512" y="252" width="40" height="40" fill="#111111" opacity="1" />
<rect x="552" y="252" width="40" height="40" fill="#111111" opacity="1" />
<rect x="592" y="252" width="40" height="40" fill="#111111" opacity="1" />
<rect x="632" y="252" width="40" height="40" fill="#111111" opacity="1" />
<rect x="672" y="252" width="40" height="40" fill="#111111" opacity="1" />
<rect x="712" y="252" width="40" height="40" fill="#111111" opacity="1" />
<rect x="752" y="252" width="40" height="40" fill="#111111" opacity="1" />
<rect x="792" y="252" width="40" height="40" fill="#111111" opacity="1" />
<rect x="832" y="252" width="40" height="40" fill="#111111" opacity="1" />
<rect x="152" y="292" width="40" height="40" fill="#111111" opacity="1" />
<rect x="192" y="292" width="40" height="40" fill="#111111" opacity="1" />
<rect x="232" y="292" width="40" height="40" fill="#111111" opacity="1" />
<rect x="272" y="292" width="40" height="40" fill="#111111" opacity="1" />
<rect x="312" y="292" width="40" height="40" fill="#111111" opacity="1" />
<rect x="352" y="292" width="40" height="40" fill="#111111" opacity="1" />
<rect x="392" y="292" width="40" height="40" fill="#111111" opacity="1" />
<rect x="432" y="292" width="40" height="40" fill="#111111" opacity="1" />
<rect x="472" y="292" width="40" height="40" fill="#111111" opacity="1" />
<rect x="512" y="292" width="40" height="40" fill="#111111" opacity="1" />
<rect x="552" y="292" width="40" height="40" fill="#111111" opacity="1" />
<rect x="592" y="292" width="40" height="40" fill="#111111" opacity="1" />
<rect x="632" y="292" width="40" height="40" fill="#111111" opacity="1" />
<rect x="672" y="292" width="40" height="40" fill="#111111" opacity="1" />
<rect x="712" y="292" width="40" height="40" fill="#111111" opacity="1" />
<rect x="752" y="292" width="40" height="40" fill="#111111" opacity="1" />
<rect x="792" y="292" width="40" height="40" fill="#111111" opacity="1" />
<rect x="832" y="292" width="40" height="40" fill="#111111" opacity="1" />
<rect x="232" y="332" width="40" height="40" fill="#111111" opacity="1" />
<rect x="272" y="332" width="40" height="40" fill="#111111" opacity="1" />
<rect x="312" y="332" width="40" height="40" fill="#111111" opacity="1" />
<rect x="352" y="332" width="40" height="40" fill="#111111" opacity="1" />
<rect x="392" y="332" width="40" height="40" fill="#111111" opacity="1" />
<rect x="432" y="332" width="40" height="40" fill="#111111" opacity="1" />
<rect x="472" y="332" width="40" height="40" fill="#111111" opacity="1" />
<rect x="512" y="332" width="40" height="40" fill="#111111" opacity="1" />
<rect x="552" y="332" width="40" height="40" fill="#111111" opacity="1" />
<rect x="592" y="332" width="40" height="40" fill="#111111" opacity="1" />
<rect x="632" y="332" width="40" height="40" fill="#111111" opacity="1" />
<rect x="672" y="332" width="40" height="40" fill="#111111" opacity="1" />
<rect x="712" y="332" width="40" height="40" fill="#111111" opacity="1" />
<rect x="752" y="332" width="40" height="40" fill="#111111" opacity="1" />
<rect x="232" y="372" width="40" height="40" fill="#111111" opacity="1" />
<rect x="272" y="372" width="40" height="40" fill="#111111" opacity="1" />
<rect x="312" y="372" width="40" height="40" fill="#111111" opacity="1" />
<rect x="352" y="372" width="40" height="40" fill="#111111" opacity="1" />
<rect x="392" y="372" width="40" height="40" fill="#111111" opacity="1" />
<rect x="432" y="372" width="40" height="40" fill="#111111" opacity="1" />
<rect x="472" y="372" width="40" height="40" fill="#111111" opacity="1" />
<rect x="512" y="372" width="40" height="40" fill="#111111" opacity="1" />
<rect x="552" y="372" width="40" height="40" fill="#111111" opacity="1" />
<rect x="592" y="372" width="40" height="40" fill="#111111" opacity="1" />
<rect x="632" y="372" width="40" height="40" fill="#111111" opacity="1" />
<rect x="672" y="372" width="40" height="40" fill="#111111" opacity="1" />
<rect x="712" y="372" width="40" height="40" fill="#111111" opacity="1" />
<rect x="752" y="372" width="40" height="40" fill="#111111" opacity="1" />
<rect x="232" y="412" width="40" height="40" fill="#111111" opacity="1" />
<rect x="272" y="412" width="40" height="40" fill="#111111" opacity="1" />
<rect x="312" y="412" width="40" height="40" fill="#111111" opacity="1" />
<rect x="352" y="412" width="40" height="40" fill="#111111" opacity="1" />
<rect x="392" y="412" width="40" height="40" fill="#111111" opacity="1" />
<rect x="432" y="412" width="40" height="40" fill="#111111" opacity="1" />
<rect x="472" y="412" width="40" height="40" fill="#111111" opacity="1" />
<rect x="512" y="412" width="40" height="40" fill="#111111" opacity="1" />
<rect x="552" y="412" width="40" height="40" fill="#111111" opacity="1" />
<rect x="592" y="412" width="40" height="40" fill="#111111" opacity="1" />
<rect x="632" y="412" width="40" height="40" fill="#111111" opacity="1" />
<rect x="672" y="412" width="40" height="40" fill="#111111" opacity="1" />
<rect x="712" y="412" width="40" height="40" fill="#111111" opacity="1" />
<rect x="752" y="412" width="40" height="40" fill="#111111" opacity="1" />
<rect x="232" y="452" width="40" height="40" fill="#111111" opacity="1" />
<rect x="272" y="452" width="40" height="40" fill="#111111" opacity="1" />
<rect x="312" y="452" width="40" height="40" fill="#111111" opacity="1" />
<rect x="352" y="452" width="40" height="40" fill="#111111" opacity="1" />
<rect x="392" y="452" width="40" height="40" fill="#111111" opacity="1" />
<rect x="432" y="452" width="40" height="40" fill="#111111" opacity="1" />
<rect x="472" y="452" width="40" height="40" fill="#111111" opacity="1" />
<rect x="512" y="452" width="40" height="40" fill="#111111" opacity="1" />
<rect x="552" y="452" width="40" height="40" fill="#111111" opacity="1" />
<rect x="592" y="452" width="40" height="40" fill="#111111" opacity="1" />
<rect x="632" y="452" width="40" height="40" fill="#111111" opacity="1" />
<rect x="672" y="452" width="40" height="40" fill="#111111" opacity="1" />
<rect x="712" y="452" width="40" height="40" fill="#111111" opacity="1" />
<rect x="752" y="452" width="40" height="40" fill="#111111" opacity="1" />
<rect x="232" y="492" width="40" height="40" fill="#111111" opacity="1" />
<rect x="272" y="492" width="40" height="40" fill="#111111" opacity="1" />
<rect x="312" y="492" width="40" height="40" fill="#111111" opacity="1" />
<rect x="352" y="492" width="40" height="40" fill="#111111" opacity="1" />
<rect x="392" y="492" width="40" height="40" fill="#111111" opacity="1" />
<rect x="432" y="492" width="40" height="40" fill="#111111" opacity="1" />
<rect x="472" y="492" width="40" height="40" fill="#111111" opacity="1" />
<rect x="512" y="492" width="40" height="40" fill="#111111" opacity="1" />
<rect x="552" y="492" width="40" height="40" fill="#111111" opacity="1" />
<rect x="592" y="492" width="40" height="40" fill="#111111" opacity="1" />
<rect x="632" y="492" width="40" height="40" fill="#111111" opacity="1" />
<rect x="672" y="492" width="40" height="40" fill="#111111" opacity="1" />
<rect x="712" y="492" width="40" height="40" fill="#111111" opacity="1" />
<rect x="752" y="492" width="40" height="40" fill="#111111" opacity="1" />
<rect x="232" y="532" width="40" height="40" fill="#111111" opacity="1" />
<rect x="272" y="532" width="40" height="40" fill="#111111" opacity="1" />
<rect x="312" y="532" width="40" height="40" fill="#111111" opacity="1" />
<rect x="352" y="532" width="40" height="40" fill="#111111" opacity="1" />
<rect x="392" y="532" width="40" height="40" fill="#111111" opacity="1" />
<rect x="432" y="532" width="40" height="40" fill="#111111" opacity="1" />
<rect x="472" y="532" width="40" height="40" fill="#111111" opacity="1" />
<rect x="512" y="532" width="40" height="40" fill="#111111" opacity="1" />
<rect x="552" y="532" width="40" height="40" fill="#111111" opacity="1" />
<rect x="592" y="532" width="40" height="40" fill="#111111" opacity="1" />
<rect x="632" y="532" width="40" height="40" fill="#111111" opacity="1" />
<rect x="672" y="532" width="40" height="40" fill="#111111" opacity="1" />
<rect x="712" y="532" width="40" height="40" fill="#111111" opacity="1" />
<rect x="752" y="532" width="40" height="40" fill="#111111" opacity="1" />
<rect x="232" y="572" width="40" height="40" fill="#111111" opacity="1" />
<rect x="272" y="572" width="40" height="40" fill="#111111" opacity="1" />
<rect x="312" y="572" width="40" height="40" fill="#111111" opacity="1" />
<rect x="352" y="572" width="40" height="40" fill="#111111" opacity="1" />
<rect x="392" y="572" width="40" height="40" fill="#111111" opacity="1" />
<rect x="432" y="572" width="40" height="40" fill="#111111" opacity="1" />
<rect x="472" y="572" width="40" height="40" fill="#111111" opacity="1" />
<rect x="512" y="572" width="40" height="40" fill="#111111" opacity="1" />
<rect x="552" y="572" width="40" height="40" fill="#111111" opacity="1" />
<rect x="592" y="572" width="40" height="40" fill="#111111" opacity="1" />
<rect x="632" y="572" width="40" height="40" fill="#111111" opacity="1" />
<rect x="672" y="572" width="40" height="40" fill="#111111" opacity="1" />
<rect x="712" y="572" width="40" height="40" fill="#111111" opacity="1" />
<rect x="752" y="572" width="40" height="40" fill="#111111" opacity="1" />
<rect x="232" y="612" width="40" height="40" fill="#111111" opacity="1" />
<rect x="272" y="612" width="40" height="40" fill="#111111" opacity="1" />
<rect x="312" y="612" width="40" height="40" fill="#111111" opacity="1" />
<rect x="352" y="612" width="40" height="40" fill="#111111" opacity="1" />
<rect x="392" y="612" width="40" height="40" fill="#111111" opacity="1" />
<rect x="432" y="612" width="40" height="40" fill="#111111" opacity="1" />
<rect x="472" y="612" width="40" height="40" fill="#111111" opacity="1" />
<rect x="512" y="612" width="40" height="40" fill="#111111" opacity="1" />
<rect x="552" y="612" width="40" height="40" fill="#111111" opacity="1" />
<rect x="592" y="612" width="40" height="40" fill="#111111" opacity="1" />
<rect x="632" y="612" width="40" height="40" fill="#111111" opacity="1" />
<rect x="672" y="612" width="40" height="40" fill="#111111" opacity="1" />
<rect x="712" y="612" width="40" height="40" fill="#111111" opacity="1" />
<rect x="752" y="612" width="40" height="40" fill="#111111" opacity="1" />
<rect x="232" y="652" width="40" height="40" fill="#111111" opacity="1" />
<rect x="272" y="652" width="40" height="40" fill="#111111" opacity="1" />
<rect x="312" y="652" width="40" height="40" fill="#111111" opacity="1" />
<rect x="352" y="652" width="40" height="40" fill="#111111" opacity="1" />
<rect x="392" y="652" width="40" height="40" fill="#111111" opacity="1" />
<rect x="432" y="652" width="40" height="40" fill="#111111" opacity="1" />
<rect x="472" y="652" width="40" height="40" fill="#111111" opacity="1" />
<rect x="512" y="652" width="40" height="40" fill="#111111" opacity="1" />
<rect x="552" y="652" width="40" height="40" fill="#111111" opacity="1" />
<rect x="592" y="652" width="40" height="40" fill="#111111" opacity="1" />
<rect x="632" y="652" width="40" height="40" fill="#111111" opacity="1" />
<rect x="672" y="652" width="40" height="40" fill="#111111" opacity="1" />
<rect x="712" y="652" width="40" height="40" fill="#111111" opacity="1" />
<rect x="752" y="652" width="40" height="40" fill="#111111" opacity="1" />
<rect x="232" y="692" width="40" height="40" fill="#111111" opacity="1" />
<rect x="272" y="692" width="40" height="40" fill="#111111" opacity="1" />
<rect x="312" y="692" width="40" height="40" fill="#111111" opacity="1" />
<rect x="352" y="692" width="40" height="40" fill="#111111" opacity="1" />
<rect x="392" y="692" width="40" height="40" fill="#111111" opacity="1" />
<rect x="432" y="692" width="40" height="40" fill="#111111" opacity="1" />
<rect x="472" y="692" width="40" height="40" fill="#111111" opacity="1" />
<rect x="512" y="692" width="40" height="40" fill="#111111" opacity="1" />
<rect x="552" y="692" width="40" height="40" fill="#111111" opacity="1" />
<rect x="592" y="692" width="40" height="40" fill="#111111" opacity="1" />
<rect x="632" y="692" width="40" height="40" fill="#111111" opacity="1" />
<rect x="672" y="692" width="40" height="40" fill="#111111" opacity="1" />
<rect x="712" y="692" width="40" height="40" fill="#111111" opacity="1" />
<rect x="752" y="692" width="40" height="40" fill="#111111" opacity="1" />
<rect x="232" y="732" width="40" height="40" fill="#111111" opacity="1" />
<rect x="272" y="732" width="40" height="40" fill="#111111" opacity="1" />
<rect x="312" y="732" width="40" height="40" fill="#111111" opacity="1" />
<rect x="352" y="732" width="40" height="40" fill="#111111" opacity="1" />
<rect x="392" y="732" width="40" height="40" fill="#111111" opacity="1" />
<rect x="432" y="732" width="40" height="40" fill="#111111" opacity="1" />
<rect x="472" y="732" width="40" height="40" fill="#111111" opacity="1" />
<rect x="512" y="732" width="40" height="40" fill="#111111" opacity="1" />
<rect x="552" y="732" width="40" height="40" fill="#111111" opacity="1" />
<rect x="592" y="732" width="40" height="40" fill="#111111" opacity="1" />
<rect x="632" y="732" width="40" height="40" fill="#111111" opacity="1" />
<rect x="672" y="732" width="40" height="40" fill="#111111" opacity="1" />
<rect x="712" y="732" width="40" height="40" fill="#111111" opacity="1" />
<rect x="752" y="732" width="40" height="40" fill="#111111" opacity="1" />
<rect x="232" y="772" width="40" height="40" fill="#111111" opacity="1" />
<rect x="272" y="772" width="40" height="40" fill="#111111" opacity="1" />
<rect x="312" y="772" width="40" height="40" fill="#111111" opacity="1" />
<rect x="352" y="772" width="40" height="40" fill="#111111" opacity="1" />
<rect x="392" y="772" width="40" height="40" fill="#111111" opacity="1" />
<rect x="432" y="772" width="40" height="40" fill="#111111" opacity="1" />
<rect x="472" y="772" width="40" height="40" fill="#111111" opacity="1" />
<rect x="512" y="772" width="40" height="40" fill="#111111" opacity="1" />
<rect x="552" y="772" width="40" height="40" fill="#111111" opacity="1" />
<rect x="592" y="772" width="40" height="40" fill="#111111" opacity="1" />
<rect x="632" y="772" width="40" height="40" fill="#111111" opacity="1" />
<rect x="672" y="772" width="40" height="40" fill="#111111" opacity="1" />
<rect x="712" y="772" width="40" height="40" fill="#111111" opacity="1" />
<rect x="752" y="772" width="40" height="40" fill="#111111" opacity="1" />
<rect x="232" y="812" width="40" height="40" fill="#111111" opacity="1" />
<rect x="272" y="812" width="40" height="40" fill="#111111" opacity="1" />
<rect x="312" y="812" width="40" height="40" fill="#111111" opacity="1" />
<rect x="352" y="812" width="40" height="40" fill="#111111" opacity="1" />
<rect x="392" y="812" width="40" height="40" fill="#111111" opacity="1" />
<rect x="432" y="812" width="40" height="40" fill="#111111" opacity="1" />
<rect x="472" y="812" width="40" height="40" fill="#111111" opacity="1" />
<rect x="512" y="812" width="40" height="40" fill="#111111" opacity="1" />
<rect x="552" y="812" width="40" height="40" fill="#111111" opacity="1" />
<rect x="592" y="812" width="40" height="40" fill="#111111" opacity="1" />
<rect x="632" y="812" width="40" height="40" fill="#111111" opacity="1" />
<rect x="672" y="812" width="40" height="40" fill="#111111" opacity="1" />
<rect x="712" y="812" width="40" height="40" fill="#111111" opacity="1" />
<rect x="752" y="812" width="40" height="40" fill="#111111" opacity="1" />
</svg>
